HIERARCHY
ROOT root
{
	OFFSET 0.000000 0.000000 0.000000
	CHANNELS 6 Xposition Yposition Zposition Zrotation Yrotation Xrotation
	JOINT lhip
	{
		OFFSET 0.058581 -0.082280 -0.017664
		CHANNELS 3 Zrotation Yrotation Xrotation
		JOINT lknee
		{
			OFFSET 0.043451 -0.386469 0.008037
			CHANNELS 3 Zrotation Yrotation Xrotation
			JOINT lankle
			{
				OFFSET -0.014790 -0.426874 -0.037428
				CHANNELS 3 Zrotation Yrotation Xrotation
				JOINT ltoe
				{
					OFFSET 0.041054 -0.060286 0.122042
					CHANNELS 3 Zrotation Yrotation Xrotation
					End Site
					{
						OFFSET 0.000000 0.000000 0.000000
					}
				}
			}
		}
	}
	JOINT rhip
	{
		OFFSET -0.060310 -0.090513 -0.013543
		CHANNELS 3 Zrotation Yrotation Xrotation
		JOINT rknee
		{
			OFFSET -0.043257 -0.383688 -0.004843
			CHANNELS 3 Zrotation Yrotation Xrotation
			JOINT rankle
			{
				OFFSET 0.019056 -0.420046 -0.034562
				CHANNELS 3 Zrotation Yrotation Xrotation
				JOINT rtoe
				{
					OFFSET -0.034840 -0.062106 0.130323
					CHANNELS 3 Zrotation Yrotation Xrotation
					End Site
					{
						OFFSET 0.000000 0.000000 0.000000
					}
				}
			}
		}
	}
	JOINT lowerback
	{
		OFFSET 0.004439 0.124404 -0.038385
		CHANNELS 3 Zrotation Yrotation Xrotation
		JOINT upperback
		{
			OFFSET 0.004488 0.137956 0.026820
			CHANNELS 3 Zrotation Yrotation Xrotation
			JOINT chest
			{
				OFFSET -0.002265 0.056032 0.002855
				CHANNELS 3 Zrotation Yrotation Xrotation
				JOINT lowerneck
				{
					OFFSET -0.013390 0.211636 -0.033468
					CHANNELS 3 Zrotation Yrotation Xrotation
					JOINT upperneck
					{
						OFFSET 0.010113 0.088937 0.050410
						CHANNELS 3 Zrotation Yrotation Xrotation
						End Site
						{
							OFFSET 0.000000 0.000000 0.000000
						}
					}
				}
				JOINT lclavicle
				{
					OFFSET 0.071702 0.114000 -0.018898
					CHANNELS 3 Zrotation Yrotation Xrotation
					JOINT lshoulder
					{
						OFFSET 0.122921 0.045205 -0.019046
						CHANNELS 3 Zrotation Yrotation Xrotation
						JOINT lelbow
						{
							OFFSET 0.255332 -0.015649 -0.022946
							CHANNELS 3 Zrotation Yrotation Xrotation
							JOINT lwrist
							{
								OFFSET 0.265709 0.012698 -0.007375
								CHANNELS 3 Zrotation Yrotation Xrotation
								End Site
								{
									OFFSET 0.000000 0.000000 0.000000
								}
							}
						}
					}
				}
				JOINT rclavicle
				{
					OFFSET -0.082954 0.112472 -0.023707
					CHANNELS 3 Zrotation Yrotation Xrotation
					JOINT rshoulder
					{
						OFFSET -0.113228 0.046853 -0.008472
						CHANNELS 3 Zrotation Yrotation Xrotation
						JOINT relbow
						{
							OFFSET -0.260127 -0.014369 -0.031269
							CHANNELS 3 Zrotation Yrotation Xrotation
							JOINT rwrist
							{
								OFFSET -0.269108 0.006794 -0.006027
								CHANNELS 3 Zrotation Yrotation Xrotation
								End Site
								{
									OFFSET 0.000000 0.000000 0.000000
								}
							}
						}
					}
				}
			}
		}
	}
}
MOTION
Frames: 17
Frame Time: 0.033333
-0.023452 -1.050000 0.975745 -167.704824 -0.375166 96.927117 7.506260 7.246991 -0.511467 -1.524436 -6.309909 -5.627484 -4.570785 9.503192 -9.345629 0.000000 -0.000000 0.000000 -7.427161 -17.050096 2.789126 2.995937 -14.282258 -5.516181 3.855855 -7.089680 -5.198422 0.000000 -0.000000 0.000000 -7.746235 2.886310 -26.388895 3.527997 -7.910536 33.887882 1.908127 -0.523354 -7.320989 -4.892142 16.607512 1.716405 2.426065 23.115915 2.470289 -33.583647 -5.847104 6.287730 -54.266212 -5.864440 10.253521 13.082093 -25.793348 -20.717420 3.105864 -13.315945 2.098270 29.131953 8.913472 7.487750 47.006398 8.674603 2.848591 -4.817971 9.656881 -26.672972 -0.903994 15.069822 -8.550848 
-0.023216 -1.052021 0.974565 -168.254149 -0.223400 97.286629 7.591558 7.500738 -0.976868 -1.601677 -5.814539 -5.482420 -4.625995 9.381292 -9.375210 0.000000 -0.000000 0.000000 -7.115262 -15.925020 1.803098 2.691717 -14.614209 -4.814348 4.390663 -7.312405 -5.573837 0.000000 -0.000000 0.000000 -6.604554 3.038160 -24.751036 3.280067 -6.863484 30.775222 1.584826 -0.023126 -7.220982 -4.891167 19.365383 3.304693 2.572566 25.264853 2.523383 -33.167468 -4.811866 6.069064 -54.718958 -5.597922 10.402155 12.585135 -25.533570 -19.306620 2.238196 -13.560019 2.580616 28.975368 8.134664 8.732823 47.562111 9.341402 2.430084 -4.806506 9.142860 -25.946551 0.069463 15.500368 -8.054977 
-0.023619 -1.057279 0.973596 -167.926871 -0.079515 97.321683 7.596848 7.281432 -1.870736 -1.464910 -5.600147 -4.653764 -4.734415 9.057055 -9.209578 0.000000 -0.000000 0.000000 -6.771793 -14.444018 1.269383 2.238871 -15.190186 -4.211735 4.470742 -8.358721 -5.559003 0.000000 -0.000000 0.000000 -5.148498 2.659601 -21.395653 2.816710 -5.810155 26.500660 1.187147 0.486064 -6.976929 -5.034905 21.389978 4.739007 2.553173 26.696512 1.510259 -32.479153 -4.075224 5.704338 -55.535041 -5.132548 11.407991 12.458422 -25.428184 -17.854768 2.135202 -14.022065 1.037772 28.151012 7.526685 8.987187 49.191437 9.247095 3.063514 -4.967359 9.409793 -24.225989 -0.230225 15.580387 -9.223210 
-0.025755 -1.064536 0.976321 -165.457634 -0.477170 95.554962 6.932847 5.681188 -1.414667 -0.858255 -6.197358 -3.999639 -4.681092 8.757861 -8.752760 0.000000 -0.000000 0.000000 -7.431983 -15.070188 3.366720 2.263552 -15.836796 -4.522840 4.549716 -9.129836 -5.724981 0.000000 -0.000000 0.000000 -4.579016 2.847220 -17.479463 1.790502 -5.719138 24.723648 1.329958 0.065096 -7.084927 -4.294207 22.894485 4.585434 2.261233 26.847762 1.557674 -31.201577 -4.222803 4.555032 -57.308319 -4.775778 12.254326 13.425277 -25.030462 -17.335757 2.342549 -14.278896 0.665062 27.719762 8.520812 8.484546 50.684412 8.737806 4.321004 -5.499368 9.431661 -24.773959 -0.856221 16.215559 -9.526128 
-0.025577 -1.065497 0.976815 -165.428372 -0.474960 95.596366 6.897945 5.857211 -1.598322 -0.856644 -6.123541 -3.910811 -4.843459 8.565233 -8.780953 0.000000 -0.000000 0.000000 -7.292637 -14.691718 3.201826 2.144552 -16.075212 -4.460137 4.457880 -9.270079 -5.782970 0.000000 -0.000000 0.000000 -4.485442 2.939813 -17.509973 1.761061 -5.324274 24.548248 1.296951 0.175455 -7.060292 -4.237763 22.962200 4.586082 2.194212 26.755160 1.612704 -31.094921 -4.107704 4.561603 -57.521032 -4.762363 12.327826 13.580531 -25.041477 -17.157161 2.357125 -14.449670 0.527646 27.545250 8.543672 8.655006 51.054906 8.880654 4.446412 -5.523457 9.448929 -24.416263 -1.344336 16.394927 -9.998784 
-0.025576 -1.067520 0.977692 -165.020223 -0.661914 95.539454 6.616899 5.652091 -1.737864 -0.816810 -6.383991 -3.955977 -4.758902 8.746753 -8.617920 0.000000 -0.000000 0.000000 -7.290913 -14.035627 3.113036 1.935488 -16.522610 -4.294096 4.255828 -9.860386 -5.880793 0.000000 -0.000000 0.000000 -4.558485 3.078831 -17.182637 1.698859 -4.777952 23.971657 1.320648 0.306814 -6.929297 -4.287867 22.596540 4.437185 2.201598 26.623463 1.691976 -30.966140 -3.950723 4.599416 -57.894623 -4.667911 12.425609 13.821488 -25.170517 -17.110450 2.510466 -14.284851 0.031316 27.319788 8.616809 8.793328 51.496173 9.076475 4.642633 -5.575489 9.704027 -23.990491 -1.527458 16.152523 -10.415237 
-0.025477 -1.079584 0.980823 -167.892334 -0.389307 93.635036 6.455814 6.876794 0.157647 -0.595238 -5.765465 -3.971469 -4.176388 9.757240 -8.664349 0.000000 -0.000000 0.000000 -7.283930 -9.641677 2.606781 0.909333 -16.622451 -1.807337 4.023044 -10.859763 -6.283814 0.000000 -0.000000 0.000000 -2.529990 3.957473 -10.730685 1.549891 -1.926619 20.025680 0.460652 0.917269 -7.321551 -3.967259 22.773485 4.812679 1.145473 25.683047 0.713876 -31.090074 -3.654123 4.075282 -58.381937 -4.647789 13.671957 14.380028 -24.703891 -16.447547 3.969059 -14.636981 -2.072800 27.063713 9.047862 8.494584 51.628375 8.996992 5.495425 -5.624062 10.254527 -23.229294 -2.493827 16.055065 -12.166336 
-0.025752 -1.081210 0.981748 -167.281568 -0.541039 93.554280 6.242669 6.615816 -0.066691 -0.570302 -5.889618 -3.798451 -4.090453 9.592200 -8.591684 0.000000 -0.000000 0.000000 -7.295601 -9.453689 2.982860 0.939642 -17.038209 -2.245376 3.898242 -11.243289 -6.212495 0.000000 -0.000000 0.000000 -2.604415 4.057403 -10.651378 1.425589 -1.760196 19.770453 0.403482 1.000707 -7.157194 -3.838801 22.595727 4.604551 1.232231 25.525548 0.847261 -30.839106 -3.591375 4.040032 -58.850360 -4.184972 13.792181 14.831284 -24.802029 -16.439739 4.111671 -14.613339 -2.902592 26.826940 9.261939 8.484688 51.997715 9.105272 5.940148 -5.856655 11.064085 -22.934395 -3.408131 16.018165 -12.986772 
-0.025540 -1.082299 0.982261 -166.816759 -0.444055 93.596357 6.371317 6.632518 -0.317932 -0.600046 -5.982633 -3.770726 -4.226782 9.280560 -8.539078 0.000000 -0.000000 0.000000 -7.095386 -9.863183 3.113491 0.993936 -17.184262 -2.532140 3.963113 -11.173178 -6.188281 0.000000 -0.000000 0.000000 -2.491345 4.333804 -10.839033 1.371867 -1.693097 19.727943 0.366323 1.017991 -7.032701 -3.712660 22.334805 4.461608 1.272551 25.337423 0.957917 -30.798920 -3.438572 4.083379 -59.087051 -3.907850 13.583801 15.095160 -24.708888 -16.688614 4.369932 -14.557728 -3.056424 26.798001 9.469568 8.657405 51.885799 9.417552 6.004750 -5.881836 11.807654 -22.905533 -3.719843 16.169850 -13.455474 
-0.025734 -1.082782 0.982339 -166.262861 -0.524454 93.374157 6.340926 6.560846 -0.183181 -0.592996 -6.234529 -3.902382 -4.278123 9.033703 -8.441285 0.000000 -0.000000 0.000000 -7.188104 -10.088708 3.357200 0.966185 -17.252233 -2.367086 3.887579 -11.366054 -6.361956 0.000000 -0.000000 0.000000 -2.536104 4.450786 -10.803469 1.321182 -1.610655 19.875253 0.297247 0.996567 -6.972698 -3.417926 22.140656 4.134673 1.223563 25.031534 1.248721 -30.422008 -3.244441 3.824068 -59.586176 -3.664172 13.602846 15.249678 -24.287961 -16.830373 4.388386 -14.164239 -3.243410 26.606803 9.512152 8.473519 51.921551 9.737033 6.230941 -5.804925 12.564347 -22.984437 -3.987618 16.062312 -13.910716 
-0.025887 -1.083801 0.982713 -165.921307 -0.581643 93.398305 6.224498 6.170448 -0.370280 -0.471777 -6.146865 -3.946474 -4.431148 8.974767 -8.165768 0.000000 -0.000000 0.000000 -7.176243 -10.085022 3.254136 0.881363 -17.511890 -2.245127 3.850524 -11.432744 -6.380352 0.000000 -0.000000 0.000000 -2.516674 4.540724 -10.903263 1.239021 -1.484818 19.845352 0.290896 1.063174 -6.943962 -3.477528 21.996335 4.121407 1.300036 24.912840 1.137946 -30.433704 -3.172452 3.752815 -59.650908 -3.263763 13.377381 15.345039 -23.877235 -17.022159 4.271236 -14.488650 -3.178638 26.448299 9.673164 8.311849 51.747985 9.971230 6.013561 -5.570340 13.052302 -23.232809 -3.465516 16.211048 -13.925497 
-0.025984 -1.084098 0.983116 -165.774316 -0.644579 93.213428 6.138701 6.117006 -0.303198 -0.509330 -6.293588 -3.733585 -4.118558 9.123987 -8.329972 0.000000 -0.000000 0.000000 -7.254354 -10.076640 3.481561 0.866478 -17.547307 -2.235435 3.902264 -11.509341 -6.484113 0.000000 -0.000000 0.000000 -2.510892 4.710375 -10.906372 1.193795 -1.276489 19.859698 0.263614 1.079945 -6.795338 -3.482842 21.802814 3.978972 1.301633 24.817512 1.230768 -30.401684 -3.098849 3.689504 -59.715653 -2.992466 13.338760 15.341995 -23.258954 -16.600610 4.455427 -14.530607 -3.772594 26.458788 9.821491 8.338911 51.628433 10.130638 6.116335 -5.863319 13.894179 -23.373063 -3.783484 16.235095 -14.744935 
-0.026076 -1.084480 0.983162 -165.610976 -0.679601 93.126178 6.159008 6.127795 -0.354337 -0.614979 -6.304233 -3.558757 -4.187129 8.899497 -8.388597 0.000000 -0.000000 0.000000 -7.304788 -10.178706 3.589826 0.869121 -17.540773 -2.233513 3.885739 -11.570546 -6.495002 0.000000 -0.000000 0.000000 -2.477627 4.779882 -10.908366 1.093887 -1.241789 19.660924 0.207719 1.209544 -6.522824 -3.324843 21.689890 3.928732 1.166135 24.807385 1.243855 -30.186182 -3.139498 3.599439 -59.909593 -2.678360 13.250966 15.430303 -22.629951 -16.652302 4.203088 -14.064203 -3.818029 26.404715 9.978710 8.231942 51.517515 10.240099 6.143728 -6.005089 14.856618 -23.419671 -3.712787 16.072144 -15.084978 
-0.026237 -1.085024 0.983111 -165.485577 -0.716089 93.162712 6.118890 6.260647 -0.547135 -0.706714 -6.309804 -3.398330 -4.095553 8.786311 -8.431002 0.000000 -0.000000 0.000000 -7.313716 -10.209709 3.484305 0.771482 -17.638914 -2.128578 3.907616 -11.555204 -6.492150 0.000000 -0.000000 0.000000 -2.389210 4.848284 -10.995502 0.980030 -1.192142 19.543985 0.140471 1.236405 -6.354434 -3.330957 21.726554 3.799671 1.221286 24.838510 1.301847 -30.095899 -3.186030 3.448663 -60.000907 -2.342235 13.140002 15.607941 -21.905708 -16.628041 3.893944 -13.694901 -3.566051 26.361771 10.113606 8.151431 51.394549 10.470705 6.088280 -6.066450 15.487730 -23.633650 -3.592879 16.120315 -15.264533 
-0.026406 -1.085706 0.983215 -165.293995 -0.762542 93.200705 6.083502 6.294894 -0.664857 -0.714759 -6.427530 -3.534009 -4.215406 8.406691 -8.262379 0.000000 -0.000000 0.000000 -7.303957 -10.125855 3.440386 0.720168 -17.827871 -2.126458 3.956877 -11.634060 -6.540441 0.000000 -0.000000 0.000000 -2.485381 4.865186 -11.100057 0.979483 -1.102449 19.437646 0.216454 1.193889 -6.250972 -3.408197 21.675253 3.854368 1.336546 24.861598 1.197475 -30.004041 -3.337509 3.480831 -60.175843 -2.129040 13.099100 15.782559 -21.285687 -16.789316 4.110291 -13.161761 -3.700507 26.217603 10.283336 8.173429 51.399639 10.532652 6.167862 -6.191492 16.067601 -23.660583 -4.042924 16.142939 -15.812479 
-0.026558 -1.086010 0.983164 -165.261542 -0.850978 93.228836 6.001440 6.207744 -0.689912 -0.875283 -6.190750 -3.444034 -4.105079 8.781993 -8.160041 0.000000 -0.000000 0.000000 -7.402145 -10.099747 3.435288 0.740034 -17.838692 -2.189549 3.933384 -11.665649 -6.462498 0.000000 -0.000000 0.000000 -2.601813 4.964650 -11.223851 0.974344 -1.048141 19.497976 0.188676 1.181123 -6.261083 -3.302023 21.591128 3.829816 1.363757 24.862700 1.190807 -29.920985 -3.242010 3.371531 -60.070865 -1.943802 13.094697 15.670636 -20.972644 -16.691808 4.317488 -12.994715 -3.773086 26.266122 10.291763 8.097302 51.336277 10.621743 6.274646 -6.291399 16.467119 -23.736338 -4.107885 16.073147 -15.868361 
-0.026819 -1.086239 0.983183 -165.129510 -0.860734 93.183216 5.986618 6.287702 -0.483483 -0.724337 -6.698695 -4.069225 -3.683072 8.027037 -8.357387 0.000000 -0.000000 0.000000 -7.404041 -10.260105 3.617114 0.746817 -17.723421 -2.429539 4.161927 -11.557676 -6.561087 0.000000 -0.000000 0.000000 -2.627221 4.951882 -11.171105 0.933772 -0.962621 19.284240 0.237300 1.128727 -6.139559 -3.176362 21.621771 3.722120 1.431308 24.710602 1.383352 -29.899163 -3.091343 3.217092 -59.930533 -1.809043 12.958212 15.661180 -20.645339 -16.649364 3.938330 -13.299760 -3.299150 26.273954 10.243526 8.117667 51.275505 10.736322 6.247595 -6.331536 16.572874 -23.722943 -3.848057 16.253092 -15.867644 
